<svg xmlns="http://www.w3.org/2000/svg" version="1.1" width="32" height="96">
  <g class="wave">
    <path
      d="M12.613 0c-.428.317-1.229.9-1.65 1.219A100.987 100.987 0 0 0 8.5 3.145h-.002c-.398.323-.787.648-1.168.974-.38.326-.753.654-1.113.983h-.002c-.361.329-.712.66-1.05.994-.34.333-.665.668-.98 1.008-.313.338-.612.678-.898 1.023h.002c-.286.345-.558.693-.812 1.045-.255.352-.493.708-.713 1.068h-.002c-.221.361-.424.727-.608 1.098-.184.37-.349.745-.492 1.125v.002c-.143.38-.265.764-.363 1.154A9.911 9.911 0 0 0 0 15.992a9.909 9.909 0 0 0 .299 2.373c.098.39.22.774.363 1.155.143.38.308.756.492 1.126.184.371.387.735.608 1.096.221.362.46.719.715 1.07.254.353.525.7.81 1.045h.002c.285.344.583.685.897 1.024.313.338.64.674.978 1.008h.002c.338.332.688.664 1.049.994a60.114 60.114 0 0 0 3.498 2.922c.411.32.827.642 1.248.96h.002a258.681 258.681 0 0 0 2.564 1.902h.002c.431.316.862.63 1.293.944.432.314.864.627 1.291.94a258.262 258.262 0 0 1 2.512 1.861 100.819 100.819 0 0 1 2.354 1.84c.374.304.74.607 1.091.908v.002c.352.3.693.6 1.02.899.327.298.64.594.94.888.298.294.581.586.849.875.268.29.52.575.754.858.234.283.45.562.65.838.2.276.38.548.543.814.164.267.31.528.438.785v.002c.127.256.237.507.33.754.093.247.168.49.228.729a5.487 5.487 0 0 1 .135 2.082c-.03.23-.075.464-.135.703-.06.238-.135.48-.228.726a8.197 8.197 0 0 1-.33.756c-.128.257-.274.52-.438.787-.163.267-.344.538-.543.813-.2.275-.416.554-.65.836v.002c-.234.283-.486.57-.754.859-.267.288-.55.579-.85.873-.298.294-.612.59-.94.889-.326.298-.666.599-1.019.9-.352.302-.717.604-1.091.908a100.876 100.876 0 0 1-2.354 1.84 148.35 148.35 0 0 1-2.514 1.863c-.427.313-.856.624-1.287.938l-1.297.945c-.43.315-.86.63-1.289.948a153.066 153.066 0 0 0-2.525 1.914c-.411.32-.817.643-1.215.966v-.002a60.1 60.1 0 0 0-1.168.975c-.38.326-.754.653-1.115.982-.36.33-.71.661-1.049.995-.339.333-.667.669-.98 1.007-.314.339-.613.681-.899 1.026-.285.344-.556.69-.81 1.043-.255.352-.494.71-.715 1.07-.221.36-.424.725-.608 1.096-.184.37-.349.746-.492 1.127-.143.38-.265.766-.363 1.156A9.876 9.876 0 0 0 0 79.998a9.908 9.908 0 0 0 .299 2.373c.098.39.22.774.363 1.154.143.381.308.757.492 1.127s.387.737.608 1.098c.22.36.46.716.715 1.068.254.352.525.7.81 1.045.286.345.585.685.899 1.024.313.338.641.674.98 1.008.339.333.688.664 1.049.994a60.117 60.117 0 0 0 2.283 1.957c.398.323.803.646 1.215.967.411.32.828.64 1.25.958.421.32 1.697 1.229 1.697 1.229h6.938c-.432-.314-3.282-2.245-3.71-2.557-.426-.312-.851-.623-1.27-.933a101.185 101.185 0 0 1-3.596-2.768 56.27 56.27 0 0 1-1.092-.91c-.353-.301-.693-.6-1.02-.898a33.81 33.81 0 0 1-.94-.89 26.387 26.387 0 0 1-.849-.874c-.268-.29-.52-.575-.754-.858a16.24 16.24 0 0 1-.65-.837c-.2-.276-.38-.548-.543-.815-.164-.267-.31-.528-.438-.785a8.158 8.158 0 0 1-.33-.756 6.801 6.801 0 0 1-.228-.728 5.464 5.464 0 0 1-.135-2.082c.03-.232.075-.466.135-.704.06-.237.135-.48.228-.726.093-.247.203-.499.33-.756.128-.257.274-.52.438-.787.163-.267.344-.537.543-.813.199-.275.416-.555.65-.837.234-.283.487-.57.754-.86.268-.289.551-.58.85-.875.298-.294.612-.59.94-.888v.001c.326-.298.666-.598 1.019-.9a73.798 73.798 0 0 1 2.244-1.826c.393-.307.793-.613 1.201-.922a149.047 149.047 0 0 1 2.514-1.863l1.287-.94 1.295-.943h.002c.431-.315.86-.632 1.289-.95v.003a152.312 152.312 0 0 0 2.525-1.914c.411-.321.817-.644 1.215-.967.398-.323.787-.647 1.168-.973.381-.326.754-.653 1.115-.982.362-.33.712-.663 1.051-.996.338-.333.665-.667.979-1.006.313-.339.612-.68.898-1.026h-.002c.286-.345.558-.692.812-1.044.255-.353.493-.707.713-1.067l.002-.002c.221-.36.424-.725.608-1.096.184-.37.349-.747.492-1.127.143-.38.265-.766.363-1.156A9.909 9.909 0 0 0 32 47.994a9.903 9.903 0 0 0-.299-2.371c-.098-.389-.22-.776-.363-1.156a12.12 12.12 0 0 0-.492-1.125v-.002c-.184-.37-.387-.736-.608-1.096-.221-.361-.46-.717-.715-1.068-.254-.352-.525-.7-.81-1.045l-.002-.002a24.87 24.87 0 0 0-.897-1.022c-.313-.338-.64-.674-.978-1.007l-.002-.002a38.325 38.325 0 0 0-1.049-.993 46.38 46.38 0 0 0-1.115-.984v.002a59.97 59.97 0 0 0-1.168-.975 78.204 78.204 0 0 0-1.215-.966c-.411-.321-.828-.64-1.25-.96a261.582 261.582 0 0 0-2.564-1.902h-.002c-.431-.314-.862-.63-1.293-.943l-1.29-.94h-.001c-.427-.311-.85-.623-1.27-.933-.42-.311-.835-.622-1.242-.93v.002a101.77 101.77 0 0 1-2.354-1.84c-.374-.304-.739-.608-1.091-.91a42.5 42.5 0 0 1-1.02-.898c-.327-.299-.64-.597-.94-.89a26.423 26.423 0 0 1-.849-.874c-.267-.289-.519-.576-.754-.86a16.238 16.238 0 0 1-.65-.837c-.2-.276-.38-.547-.543-.813-.164-.267-.31-.53-.438-.787a8.134 8.134 0 0 1-.33-.756 6.79 6.79 0 0 1-.228-.726 5.47 5.47 0 0 1-.135-2.082 5.9 5.9 0 0 1 .135-.703c.06-.238.136-.48.228-.727v-.002c.093-.247.203-.5.33-.756.128-.257.274-.518.438-.785h-.002c.164-.267.346-.539.545-.814.2-.276.416-.554.65-.836.234-.283.486-.57.754-.86.267-.288.55-.58.85-.875.298-.294.612-.59.94-.888v.002a44.24 44.24 0 0 1 1.019-.9c.351-.302.716-.605 1.09-.909l.002-.002c.374-.304.76-.61 1.152-.916.393-.307.794-.614 1.201-.922a148.998 148.998 0 0 1 2.514-1.863C16.316 2.235 19.012.314 19.443 0Z" />
  </g>
  <g class="colon">
    <rect width="8" height="8" x="12" y="28" ry="2.169" />
    <rect width="8" height="8" x="12" y="60" ry="2.169" />
  </g>
</svg>